<svg width="40" height="40" viewBox="0 0 40 40" fill="none" xmlns="http://www.w3.org/2000/svg">
<g id="Icon - Command">
<circle id="Icon Bg" cx="20" cy="20" r="20" fill="#F9F7F7"/>
<g id="confirmation 1" clip-path="url(#clip0_85_131)">
<g id="Group">
<g id="Group_2">
<path id="Vector" d="M23.5215 10.0166C19.7786 10.3546 19.4164 17.5334 17.8022 21.2114C17.0022 23.034 15.1158 24.9143 15.4483 27.0623C15.8235 29.4855 18.2959 30.1902 20.2016 29.9584C24.9173 29.3847 26.9554 24.4485 27.264 19.7708C27.4542 16.8869 28.057 9.60706 23.5215 10.0166Z" fill="url(#paint0_linear_85_131)"/>
</g>
<g id="Group_3">
<g id="Group_4">
<g id="Group_5" opacity="0.1">
<path id="Vector_2" opacity="0.1" d="M22.2277 18.2881H23.4033C23.949 18.5932 24.5829 18.7594 25.2577 18.7364C27.0997 18.6738 28.6016 17.189 28.6832 15.3477C28.7758 13.2581 27.0623 11.5446 24.9726 11.6373C23.1314 11.7189 21.6466 13.2208 21.584 15.0628C21.5611 15.7376 21.7272 16.3715 22.0324 16.9171V18.0928C22.0324 18.2007 22.1198 18.2881 22.2277 18.2881Z" fill="#2626BC"/>
<path id="Vector_3" opacity="0.1" d="M27.7518 21.7563L25.8294 20.6087C25.4679 20.3929 25.0054 20.455 24.7135 20.7584L24.0067 21.4932C24.0067 21.4932 22.7714 21.0483 21.0253 19.3022C19.2792 17.5561 18.8343 16.3208 18.8343 16.3208L19.5692 15.614C19.8726 15.3222 19.9346 14.8596 19.7188 14.4981L18.5712 12.5758C18.3274 12.1674 17.8091 12.0175 17.385 12.2327L16.7923 12.5333C15.4227 13.2282 14.9125 14.923 15.6632 16.2629C16.6325 17.9932 17.8326 19.5952 19.2825 21.045C20.7324 22.4949 22.3344 23.695 24.0647 24.6644C24.32 24.8074 24.5883 24.9044 24.8601 24.9586L26.1149 26.2134C26.2674 26.3659 26.5147 26.3659 26.6673 26.2134L26.6872 26.1935C26.6947 26.2051 26.7033 26.2162 26.7135 26.2264L27.1968 26.7097C27.4881 27.0011 27.6485 27.3884 27.6485 27.8004C27.6485 28.2125 27.4881 28.5998 27.1968 28.8911C26.5954 29.4926 25.6167 29.4925 25.0153 28.8911L23.3029 27.1787C23.1622 27.038 22.975 26.9605 22.776 26.9605C22.577 26.9605 22.3899 27.038 22.2492 27.1787L22.0926 27.3352C22.0226 27.4052 21.9294 27.4438 21.8304 27.4438C21.7313 27.4438 21.6381 27.4052 21.568 27.3352C21.4234 27.1905 21.4234 26.9552 21.568 26.8106L22.1857 26.1929C22.4826 25.8959 22.4826 25.4127 22.1857 25.1158C21.8888 24.8189 21.4056 24.8189 21.1087 25.1158L20.491 25.7335C20.3464 25.8781 20.111 25.8782 19.9663 25.7335C19.8217 25.5888 19.8217 25.3535 19.9663 25.2089L20.584 24.5912C20.881 24.2943 20.881 23.8111 20.584 23.5142C20.2871 23.2172 19.804 23.2172 19.507 23.5142L18.8893 24.1318C18.7447 24.2765 18.5094 24.2765 18.3647 24.1318C18.2201 23.9872 18.2201 23.7518 18.3647 23.6072L18.9823 22.9895C19.1262 22.8457 19.2054 22.6544 19.2054 22.451C19.2054 22.2476 19.1262 22.0563 18.9823 21.9125C18.6855 21.6156 18.2023 21.6155 17.9053 21.9125L17.2876 22.5302C17.2176 22.6002 17.1244 22.6388 17.0253 22.6388C16.9263 22.6388 16.8331 22.6002 16.763 22.5301C16.6184 22.3855 16.6184 22.1502 16.763 22.0055L17.3807 21.3878C17.5246 21.244 17.6038 21.0527 17.6038 20.8493C17.6038 20.6459 17.5246 20.4546 17.3807 20.3108C17.2369 20.167 17.0456 20.0877 16.8422 20.0877C16.6388 20.0877 16.4475 20.167 16.3037 20.3108L15.686 20.9284C15.5414 21.0731 15.306 21.0731 15.1613 20.9284C15.0167 20.7838 15.0167 20.5484 15.1613 20.4038L15.3178 20.2474C15.4586 20.1066 15.5361 19.9195 15.5361 19.7205C15.5361 19.5215 15.4586 19.3343 15.3178 19.1936L14.1872 18.063C13.4862 17.3618 12.3452 17.3618 11.644 18.063C10.9429 18.7642 10.9429 19.905 11.644 20.6062L20.2621 29.2243C20.3383 29.3006 20.4621 29.3006 20.5383 29.2243C20.6146 29.148 20.6146 29.0243 20.5383 28.9481L11.9202 20.3301C11.3713 19.7812 11.3713 18.8881 11.9202 18.3393C12.469 17.7904 13.3621 17.7903 13.911 18.3393L15.0416 19.4699C15.1086 19.5368 15.1454 19.6259 15.1454 19.7206C15.1454 19.8152 15.1086 19.9043 15.0416 19.9712L14.8851 20.1277C14.5882 20.4247 14.5882 20.9078 14.8851 21.2048C15.1821 21.5018 15.6654 21.5017 15.9622 21.2048L16.5799 20.5871C16.6499 20.517 16.7431 20.4784 16.8422 20.4784C16.9412 20.4784 17.0344 20.517 17.1045 20.5871C17.2491 20.7318 17.2491 20.9671 17.1045 21.1117L16.4868 21.7294C16.3429 21.8733 16.2637 22.0645 16.2637 22.2679C16.2637 22.4713 16.3429 22.6626 16.4868 22.8065C16.6306 22.9503 16.8219 23.0295 17.0253 23.0295C17.2287 23.0295 17.42 22.9503 17.5638 22.8065L18.1815 22.1888C18.2516 22.1188 18.3447 22.0802 18.4438 22.0802C18.5429 22.0802 18.6361 22.1188 18.7062 22.1888C18.7762 22.2589 18.8148 22.352 18.8148 22.4511C18.8148 22.5502 18.7762 22.6434 18.7062 22.7134L18.0885 23.3311C17.7915 23.6281 17.7915 24.1112 18.0885 24.4082C18.3854 24.7051 18.8686 24.7052 19.1655 24.4082L19.7832 23.7905C19.8533 23.7204 19.9464 23.6818 20.0455 23.6818C20.1446 23.6818 20.2378 23.7204 20.3078 23.7905C20.4524 23.9352 20.4524 24.1705 20.3078 24.3151L19.6901 24.9328C19.3932 25.2298 19.3932 25.7129 19.6902 26.0099C19.9872 26.3068 20.4704 26.3067 20.7672 26.0099L21.3849 25.3922C21.5296 25.2475 21.7649 25.2476 21.9096 25.3922C22.0542 25.5368 22.0542 25.7722 21.9096 25.9168L21.2919 26.5345C20.9949 26.8314 20.9949 27.3146 21.2918 27.6115C21.4357 27.7554 21.6269 27.8345 21.8304 27.8345C22.0338 27.8345 22.2251 27.7553 22.3688 27.6115L22.5253 27.455C22.5923 27.3881 22.6813 27.3512 22.776 27.3512C22.8707 27.3512 22.9597 27.3881 23.0267 27.455L24.7391 29.1674C25.116 29.5443 25.611 29.7327 26.106 29.7327C26.6011 29.7327 27.0961 29.5443 27.4729 29.1674C27.8381 28.8023 28.0392 28.3169 28.0392 27.8005C28.0392 27.2841 27.8381 26.7987 27.4729 26.4336L26.9896 25.9502C26.9795 25.9401 26.9684 25.9315 26.9567 25.924L26.9767 25.9041C27.1292 25.7515 27.1292 25.5042 26.9767 25.3517L26.428 24.803C26.9986 24.5658 27.4914 24.1323 27.7942 23.5353L28.0949 22.9427C28.3101 22.5184 28.1601 22.0001 27.7518 21.7563Z" fill="#2626BC"/>
</g>
<g id="Group_6">
<g id="Group_7">
<g id="Group_8">
<g id="Group_9">
<path id="Vector_4" d="M28.6832 14.3713C28.7759 12.2816 27.0623 10.568 24.9726 10.6607C23.1313 10.7424 21.6466 12.2443 21.584 14.0863C21.5611 14.761 21.7272 15.3949 22.0324 15.9405V17.1162C22.0324 17.2241 22.1198 17.3115 22.2277 17.3115H23.4033C23.949 17.6166 24.5829 17.7828 25.2576 17.7599C27.0996 17.6973 28.6015 16.2125 28.6832 14.3713Z" fill="#FFC269"/>
<path id="Vector_5" d="M24.6798 17.9279C24.6715 17.9279 24.6632 17.9274 24.6547 17.9263C24.1962 17.8675 23.7586 17.7265 23.3531 17.5069H22.2276C22.0122 17.5069 21.837 17.3316 21.837 17.1163V15.9907C21.521 15.4068 21.3661 14.7473 21.3888 14.0797C21.4547 12.1391 23.0251 10.5516 24.9639 10.4656C26.0145 10.4187 27.0426 10.8177 27.7844 11.5595C28.5262 12.3013 28.9249 13.3293 28.8783 14.38C28.8412 15.2159 28.5163 16.0264 27.9634 16.6623C27.4168 17.291 26.6698 17.7255 25.8601 17.8857C25.7543 17.9067 25.6515 17.8378 25.6306 17.732C25.6096 17.6262 25.6785 17.5235 25.7843 17.5025C26.5094 17.3591 27.1785 16.9697 27.6686 16.406C28.1638 15.8365 28.4548 15.1108 28.488 14.3627C28.5304 13.4074 28.1824 12.51 27.5081 11.8358C26.8339 11.1615 25.9363 10.8134 24.9812 10.8559C23.2447 10.9329 21.8382 12.3548 21.7792 14.093C21.7583 14.7066 21.9048 15.3125 22.2028 15.8453C22.2191 15.8744 22.2276 15.9072 22.2276 15.9406V17.1163H23.4033C23.4367 17.1163 23.4695 17.1248 23.4987 17.1411C23.8729 17.3504 24.2786 17.4842 24.7044 17.5388C24.8114 17.5526 24.887 17.6504 24.8733 17.7574C24.8607 17.8559 24.7766 17.9279 24.6798 17.9279Z" fill="#52C4FF"/>
</g>
</g>
<g id="Group_10">
<g id="Group_11">
<g id="Group_12">
<g id="Group_13">
<path id="Vector_6" d="M27.0451 15.2126H23.2235C23.1156 15.2126 23.0282 15.1252 23.0282 15.0173C23.0282 14.9095 23.1156 14.822 23.2235 14.822H27.0451C27.153 14.822 27.2404 14.9095 27.2404 15.0173C27.2404 15.1252 27.153 15.2126 27.0451 15.2126Z" fill="white"/>
</g>
</g>
<g id="Group_14">
<g id="Group_15">
<path id="Vector_7" d="M27.0451 16.0065H23.2235C23.1156 16.0065 23.0282 15.919 23.0282 15.8112C23.0282 15.7033 23.1156 15.6158 23.2235 15.6158H27.0451C27.153 15.6158 27.2404 15.7033 27.2404 15.8112C27.2404 15.919 27.153 16.0065 27.0451 16.0065Z" fill="white"/>
</g>
</g>
</g>
<g id="Group_16">
<path id="Vector_8" d="M24.5619 12.3378H24.3668C24.0913 12.3378 23.8672 12.5619 23.8672 12.8374V13.55C23.8672 13.8255 24.0913 14.0497 24.3668 14.0497H24.5619C24.8374 14.0497 25.0615 13.8255 25.0615 13.55V12.8374C25.0615 12.5619 24.8374 12.3378 24.5619 12.3378ZM24.6709 13.55C24.6709 13.6102 24.622 13.6591 24.5619 13.6591H24.3668C24.3067 13.6591 24.2578 13.6102 24.2578 13.55V12.8374C24.2578 12.7773 24.3067 12.7284 24.3668 12.7284H24.5619C24.622 12.7284 24.6709 12.7773 24.6709 12.8374V13.55Z" fill="white"/>
<path id="Vector_9" d="M25.7942 13.194L26.3407 12.675C26.4189 12.6007 26.4221 12.4771 26.3478 12.3988C26.2736 12.3206 26.15 12.3174 26.0717 12.3917L25.7059 12.7391V12.5334C25.7059 12.4255 25.6185 12.338 25.5106 12.338C25.4027 12.338 25.3153 12.4255 25.3153 12.5334V13.8546C25.3153 13.9625 25.4027 14.05 25.5106 14.05C25.6185 14.05 25.7059 13.9625 25.7059 13.8546V13.6488L26.0717 13.9962C26.1095 14.0321 26.1579 14.05 26.2062 14.05C26.2578 14.05 26.3094 14.0296 26.3478 13.9891C26.4221 13.9109 26.4189 13.7873 26.3407 13.713L25.7942 13.194Z" fill="white"/>
</g>
</g>
</g>
<g id="Group_17">
<path id="Vector_10" d="M26.1148 25.2369L24.6091 23.7312L25.471 22.8694L26.9766 24.375C27.1291 24.5276 27.1291 24.7749 26.9766 24.9274L26.6672 25.2369C26.5146 25.3894 26.2673 25.3894 26.1148 25.2369Z" fill="#4F9310"/>
<g id="Group_18">
<path id="Vector_11" d="M21.0252 18.3257C22.7713 20.0718 24.0066 20.5166 24.0066 20.5166L24.7135 19.7818C25.0053 19.4784 25.4679 19.4163 25.8294 19.6322L27.7517 20.7798C28.1601 21.0236 28.31 21.5419 28.0948 21.966L27.7942 22.5587C27.0993 23.9283 25.4045 24.4384 24.0646 23.6878C22.3343 22.7185 20.7323 21.5184 19.2825 20.0685C17.8326 18.6186 16.6325 17.0166 15.6631 15.2863C14.9125 13.9465 15.4226 12.2516 16.7923 11.5568L17.3849 11.2561C17.8091 11.0409 18.3274 11.1909 18.5711 11.5992L19.7188 13.5215C19.9345 13.883 19.8725 14.3456 19.5691 14.6374L18.8343 15.3443C18.8343 15.3442 19.2791 16.5795 21.0252 18.3257Z" fill="#02FFB3"/>
<path id="Vector_12" d="M21.0252 18.3257C22.7713 20.0718 24.0066 20.5166 24.0066 20.5166L24.7135 19.7818C25.0053 19.4784 25.4679 19.4163 25.8294 19.6322L27.7517 20.7798C28.1601 21.0236 28.31 21.5419 28.0948 21.966L27.7942 22.5587C27.0993 23.9283 25.4045 24.4384 24.0646 23.6878C22.3343 22.7185 20.7323 21.5184 19.2825 20.0685C17.8326 18.6186 16.6325 17.0166 15.6631 15.2863C14.9125 13.9465 15.4226 12.2516 16.7923 11.5568L17.3849 11.2561C17.8091 11.0409 18.3274 11.1909 18.5711 11.5992L19.7188 13.5215C19.9345 13.883 19.8725 14.3456 19.5691 14.6374L18.8343 15.3443C18.8343 15.3442 19.2791 16.5795 21.0252 18.3257Z" fill="#5CB30B"/>
<path id="Vector_13" d="M22.0046 21.1637L21.3091 21.8592C20.6048 21.3106 19.9283 20.7142 19.2825 20.0685C18.6367 19.4227 18.0404 18.7462 17.4918 18.0419L18.1873 17.3464C18.3398 17.1939 18.5873 17.1939 18.7397 17.3464L22.0046 20.6112C22.1571 20.7637 22.1571 21.0112 22.0046 21.1637Z" fill="#4F9310"/>
<g id="Group_19">
<path id="Vector_14" d="M19.5692 14.6375L19.1745 15.0173C18.4668 14.06 17.8335 13.0576 17.2722 12.014C17.1717 11.8268 17.0915 11.6329 17.0316 11.4354L17.3849 11.2561C17.8089 11.0409 18.3274 11.1909 18.571 11.5991L19.7189 13.5216C19.9346 13.8832 19.8727 14.3455 19.5692 14.6375Z" fill="#DCFDEE"/>
<path id="Vector_15" d="M27.9156 22.3194C27.7181 22.2594 27.5242 22.1793 27.3369 22.0788C26.2934 21.5175 25.291 20.8842 24.3336 20.1765L24.7134 19.7818C25.0054 19.4782 25.4678 19.4164 25.8293 19.6321L27.7518 20.78C28.16 21.0236 28.31 21.5421 28.0948 21.966L27.9156 22.3194Z" fill="#DCFDEE"/>
</g>
</g>
<path id="Vector_16" d="M27.9683 22.647L28.2689 22.0544C28.5295 21.5408 28.3462 20.9072 27.8517 20.6121L25.9294 19.4645C25.4874 19.2006 24.9294 19.2754 24.5726 19.6464L23.9589 20.2845C23.6194 20.1302 22.553 19.5773 21.1633 18.1876C19.7734 16.7976 19.2204 15.7312 19.0663 15.392L19.7044 14.7782C20.0754 14.4214 20.1502 13.8635 19.8864 13.4215L18.7388 11.4991C18.4436 11.0046 17.81 10.8214 17.2965 11.0819L16.7038 11.3826C15.9956 11.7419 15.4783 12.3582 15.2471 13.118C15.015 13.8809 15.1022 14.6849 15.4926 15.3818C16.389 16.982 17.4824 18.4661 18.7422 19.7929C18.8165 19.8712 18.9401 19.8744 19.0183 19.8001C19.0966 19.7258 19.0998 19.6022 19.0255 19.524C17.788 18.2206 16.714 16.7628 15.8334 15.1909C15.4954 14.5876 15.4199 13.8919 15.6208 13.2317C15.8207 12.5746 16.2681 12.0416 16.8805 11.731L17.4732 11.4303C17.8044 11.2622 18.2129 11.3804 18.4034 11.6994L19.551 13.6217C19.7211 13.9067 19.6729 14.2665 19.4336 14.4967L18.6988 15.2035C18.6432 15.2569 18.6243 15.338 18.6504 15.4105C18.6692 15.4626 19.1303 16.707 20.8871 18.4638C22.6438 20.2206 23.8883 20.6817 23.9404 20.7004C24.013 20.7265 24.094 20.7076 24.1474 20.6521L24.8542 19.9172C25.0843 19.678 25.4441 19.6297 25.7292 19.7999L27.6515 20.9475C27.9704 21.1379 28.0886 21.5464 27.9206 21.8777L27.6199 22.4703C27.3092 23.0828 26.7762 23.5302 26.1192 23.7301C25.4591 23.9309 24.7633 23.8554 24.16 23.5175C22.5879 22.6368 21.1299 21.5626 19.8265 20.3249C19.7482 20.2506 19.6246 20.2538 19.5503 20.332C19.4761 20.4102 19.4793 20.5338 19.5575 20.6081C20.8845 21.8683 22.3688 22.9617 23.9692 23.8583C24.2225 24.0002 24.49 24.1019 24.7645 24.1629L25.9767 25.375C26.0873 25.4857 26.2345 25.5467 26.391 25.5467C26.5474 25.5467 26.6946 25.4857 26.8052 25.375L26.8219 25.3584L27.1967 25.7332C27.488 26.0245 27.6484 26.4119 27.6484 26.8239C27.6484 27.2359 27.488 27.6233 27.1967 27.9146C26.5952 28.516 25.6166 28.516 25.0152 27.9146L23.3028 26.2022C23.162 26.0614 22.9749 25.9839 22.7759 25.9839C22.5769 25.9839 22.3897 26.0614 22.249 26.2022L22.0925 26.3587C22.0225 26.4287 21.9293 26.4673 21.8302 26.4673C21.7311 26.4673 21.638 26.4287 21.5679 26.3586C21.4233 26.214 21.4233 25.9787 21.5679 25.834L22.1856 25.2163C22.4825 24.9194 22.4825 24.4362 22.1856 24.1393C21.8886 23.8424 21.4055 23.8424 21.1085 24.1393L20.4909 24.7569C20.3463 24.9015 20.1109 24.9016 19.9662 24.7569C19.8216 24.6123 19.8216 24.3769 19.9662 24.2323L20.5839 23.6147C20.8808 23.3177 20.8808 22.8346 20.5839 22.5376C20.287 22.2407 19.8038 22.2406 19.5069 22.5376L18.8892 23.1553C18.7446 23.2999 18.5092 23.2999 18.3646 23.1553C18.2199 23.0106 18.2199 22.7753 18.3645 22.6306L18.9822 22.013C19.1261 21.8691 19.2053 21.6779 19.2053 21.4745C19.2053 21.271 19.1261 21.0798 18.9822 20.9359C18.6854 20.639 18.2022 20.639 17.9052 20.9359L17.2875 21.5536C17.2175 21.6237 17.1243 21.6622 17.0252 21.6622C16.9261 21.6622 16.833 21.6237 16.7629 21.5536C16.6183 21.4089 16.6183 21.1736 16.7629 21.029L17.3806 20.4113C17.5245 20.2674 17.6037 20.0762 17.6037 19.8728C17.6037 19.6694 17.5245 19.4781 17.3806 19.3342C17.2367 19.1904 17.0455 19.1112 16.8421 19.1112C16.6386 19.1112 16.4474 19.1904 16.3036 19.3342L15.6859 19.9519C15.5413 20.0965 15.3059 20.0966 15.1612 19.9519C15.0166 19.8072 15.0166 19.5719 15.1612 19.4273L15.3177 19.2708C15.4585 19.1301 15.536 18.9429 15.536 18.7439C15.536 18.5449 15.4585 18.3578 15.3177 18.217L14.1871 17.0864C13.486 16.3853 12.3451 16.3852 11.6439 17.0864C10.9427 17.7876 10.9427 18.9285 11.6439 19.6297L20.262 28.2478C20.3382 28.324 20.4619 28.324 20.5381 28.2478C20.6144 28.1715 20.6144 28.0478 20.5381 27.9715L11.9201 19.3535C11.3712 18.8046 11.3712 17.9115 11.9201 17.3627C12.4689 16.8138 13.362 16.8137 13.911 17.3627L15.0415 18.4933C15.1085 18.5603 15.1454 18.6493 15.1454 18.744C15.1454 18.8387 15.1085 18.9277 15.0415 18.9946L14.885 19.1511C14.5881 19.4481 14.5881 19.9312 14.8851 20.2282C15.182 20.5252 15.6653 20.5251 15.9621 20.2282L16.5798 19.6105C16.6498 19.5404 16.743 19.5019 16.8421 19.5019C16.9411 19.5019 17.0344 19.5404 17.1044 19.6105C17.249 19.7552 17.249 19.9905 17.1044 20.1351L16.4867 20.7528C16.3429 20.8967 16.2636 21.0879 16.2636 21.2913C16.2636 21.4947 16.3429 21.686 16.4867 21.8299C16.6306 21.9737 16.8218 22.0529 17.0252 22.0529C17.2286 22.0529 17.4199 21.9737 17.5637 21.8299L18.1814 21.2122C18.2515 21.1422 18.3447 21.1036 18.4438 21.1036C18.5428 21.1036 18.636 21.1422 18.7061 21.2122C18.7761 21.2823 18.8147 21.3754 18.8147 21.4745C18.8147 21.5737 18.7761 21.6668 18.7061 21.7369L18.0884 22.3545C17.7915 22.6515 17.7915 23.1346 18.0884 23.4316C18.3854 23.7285 18.8685 23.7286 19.1654 23.4316L19.7831 22.8139C19.8532 22.7438 19.9463 22.7053 20.0454 22.7053C20.1445 22.7053 20.2377 22.7438 20.3077 22.8139C20.4524 22.9586 20.4524 23.1939 20.3077 23.3385L19.6901 23.9562C19.3931 24.2532 19.3931 24.7363 19.6901 25.0333C19.9871 25.3303 20.4704 25.3301 20.7671 25.0333L21.3848 24.4156C21.5295 24.2709 21.7649 24.271 21.9095 24.4156C22.0541 24.5603 22.0541 24.7956 21.9095 24.9402L21.2918 25.5579C20.9948 25.8548 20.9948 26.338 21.2917 26.6349C21.4356 26.7788 21.6269 26.8579 21.8303 26.8579C22.0337 26.8579 22.225 26.7787 22.3688 26.6349L22.5252 26.4784C22.5922 26.4115 22.6813 26.3746 22.776 26.3746C22.8706 26.3746 22.9597 26.4115 23.0266 26.4784L24.739 28.1908C25.1159 28.5677 25.6109 28.7561 26.106 28.7561C26.601 28.7561 27.096 28.5677 27.4729 28.1908C27.838 27.8257 28.0391 27.3403 28.0391 26.8239C28.0391 26.3075 27.838 25.8221 27.4729 25.457L27.0981 25.0822L27.1147 25.0656C27.2254 24.9549 27.2863 24.8078 27.2863 24.6513C27.2863 24.4948 27.2254 24.3476 27.1147 24.237L26.7621 23.8844C27.2783 23.6082 27.6968 23.1823 27.9683 22.647ZM26.8385 24.5131C26.8754 24.55 26.8957 24.599 26.8957 24.6512C26.8957 24.7034 26.8754 24.7524 26.8385 24.7893L26.5291 25.0987C26.4922 25.1356 26.4432 25.156 26.391 25.156C26.3388 25.156 26.2897 25.1356 26.2529 25.0987L25.3852 24.2311C25.6684 24.231 25.9534 24.1888 26.2329 24.1038C26.2826 24.0887 26.3316 24.0722 26.38 24.0546L26.8385 24.5131Z" fill="#5CB30B"/>
</g>
</g>
</g>
<path id="Vector_17" d="M13.9177 15.1293C13.7727 15.1293 13.6276 15.0741 13.5172 14.9637C13.2963 14.7428 13.2963 14.3835 13.5172 14.1627C13.738 13.9419 14.0974 13.9419 14.3182 14.1627C14.5391 14.3835 14.5391 14.7429 14.3182 14.9637C14.2078 15.0741 14.0628 15.1293 13.9177 15.1293ZM13.9177 14.3875C13.8727 14.3875 13.8277 14.4046 13.7934 14.4389C13.7249 14.5074 13.7249 14.6189 13.7934 14.6875C13.862 14.756 13.9734 14.756 14.042 14.6875C14.1105 14.6189 14.1105 14.5074 14.042 14.4389C14.0078 14.4046 13.9627 14.3875 13.9177 14.3875Z" fill="#00ECA2"/>
<path id="Vector_18" d="M14.6599 25.6717C14.5149 25.6717 14.3698 25.6165 14.2594 25.5061C14.0385 25.2852 14.0385 24.9259 14.2594 24.705C14.4802 24.4842 14.8396 24.4842 15.0604 24.705C15.2813 24.9259 15.2813 25.2852 15.0604 25.5061C14.95 25.6165 14.8049 25.6717 14.6599 25.6717ZM14.6599 24.9299C14.6149 24.9299 14.5699 24.947 14.5356 24.9813C14.467 25.0498 14.467 25.1613 14.5356 25.2299C14.6042 25.2984 14.7156 25.2984 14.7842 25.2299C14.8527 25.1613 14.8527 25.0498 14.7842 24.9813C14.7499 24.947 14.7049 24.9299 14.6599 24.9299Z" fill="#3173C9"/>
<path id="Vector_19" d="M14.0778 13.2102C14.0278 13.2102 13.9778 13.1911 13.9397 13.153L13.7067 12.92L13.4736 13.153C13.3974 13.2292 13.2737 13.2292 13.1975 13.153C13.1212 13.0767 13.1212 12.953 13.1975 12.8768L13.5686 12.5057C13.6448 12.4294 13.7685 12.4294 13.8447 12.5057L14.2158 12.8768C14.2921 12.9531 14.2921 13.0767 14.2158 13.153C14.1777 13.1911 14.1277 13.2102 14.0778 13.2102Z" fill="#FF7EB8"/>
<path id="Vector_20" d="M27.9827 19.6021C27.9327 19.6021 27.8827 19.5831 27.8446 19.545L27.6116 19.312L27.3786 19.545C27.3023 19.6212 27.1786 19.6212 27.1024 19.545C27.0261 19.4687 27.0261 19.345 27.1024 19.2687L27.4735 18.8976C27.5497 18.8214 27.6734 18.8214 27.7496 18.8976L28.1207 19.2687C28.197 19.345 28.197 19.4687 28.1207 19.545C28.0826 19.5831 28.0326 19.6021 27.9827 19.6021Z" fill="#00ECA2"/>
<path id="Vector_21" d="M22.8609 28.7968C22.811 28.7968 22.7609 28.7778 22.7229 28.7397L22.4899 28.5067L22.2568 28.7397C22.1806 28.8159 22.0569 28.8159 21.9807 28.7397C21.9044 28.6634 21.9044 28.5397 21.9807 28.4634L22.3518 28.0923C22.428 28.0161 22.5517 28.0161 22.6279 28.0923L22.999 28.4634C23.0753 28.5397 23.0753 28.6634 22.999 28.7397C22.9609 28.7778 22.9109 28.7968 22.8609 28.7968Z" fill="#FF7EB8"/>
</g>
</g>
</g>
</g>
<defs>
<linearGradient id="paint0_linear_85_131" x1="28.0363" y1="24.0651" x2="16.3452" y2="16.9208" gradientUnits="userSpaceOnUse">
<stop offset="0.0112" stop-color="#DAFCED"/>
<stop offset="0.761" stop-color="#CBDCFA"/>
<stop offset="1" stop-color="#C6D1FF"/>
</linearGradient>
<clipPath id="clip0_85_131">
<rect width="20" height="20" fill="white" transform="translate(10 10)"/>
</clipPath>
</defs>
</svg>
